HIERARCHY
ROOT hip
{
  OFFSET 0 0 0
  CHANNELS 6 Xposition Yposition Zposition Zrotation Yrotation Xrotation
  JOINT abdomen
  {
    OFFSET 0 20.6881 -0.73152
    CHANNELS 3 Zrotation Xrotation Yrotation
    JOINT chest
    {
      OFFSET 0 11.7043 -0.48768
      CHANNELS 3 Zrotation Xrotation Yrotation
      JOINT neck
      {
        OFFSET 0 22.1894 -2.19456
        CHANNELS 3 Zrotation Xrotation Yrotation
        JOINT head
        {
          OFFSET -0.24384 7.07133 1.2192
          CHANNELS 3 Zrotation Xrotation Yrotation
          JOINT leftEye
          {
            OFFSET 4.14528 8.04674 8.04672
            CHANNELS 3 Zrotation Xrotation Yrotation
            End Site
            {
              OFFSET 1 0 0
            }
          }
          JOINT rightEye
          {
            OFFSET -3.6576 8.04674 8.04672
            CHANNELS 3 Zrotation Xrotation Yrotation
            End Site
            {
              OFFSET 1 0 0
            }
          }
        }
      }
      JOINT rCollar
      {
        OFFSET -2.68224 19.2634 -4.8768
        CHANNELS 3 Zrotation Xrotation Yrotation
        JOINT rShldr
        {
          OFFSET -8.77824 -1.95073 1.46304
          CHANNELS 3 Zrotation Xrotation Yrotation
          JOINT rForeArm
          {
            OFFSET -28.1742 -1.7115 0.48768
            CHANNELS 3 Zrotation Xrotation Yrotation
            JOINT rHand
            {
              OFFSET -22.5879 0.773209 7.07136
              CHANNELS 3 Zrotation Xrotation Yrotation
              JOINT rThumb1
              {
                OFFSET -1.2192 -0.487915 3.41376
                CHANNELS 3 Zrotation Xrotation Yrotation
                JOINT rThumb2
                {
                  OFFSET -3.37035 -0.52449 3.41376
                  CHANNELS 3 Zrotation Xrotation Yrotation
                  End Site
                  {
                    OFFSET -1.78271 -1.18214 1.43049
                  }
                }
              }
              JOINT rIndex1
              {
                OFFSET -7.75947 0.938293 5.60832
                CHANNELS 3 Zrotation Xrotation Yrotation
                JOINT rIndex2
                {
                  OFFSET -2.54057 -0.884171 1.56538
                  CHANNELS 3 Zrotation Xrotation Yrotation
                  End Site
                  {
                    OFFSET -1.62519 -0.234802 1.16502
                  }
                }
              }
              JOINT rMid1
              {
                OFFSET -8.24714 1.18213 3.41376
                CHANNELS 3 Zrotation Xrotation Yrotation
                JOINT rMid2
                {
                  OFFSET -3.10165 -0.590103 1.0647
                  CHANNELS 3 Zrotation Xrotation Yrotation
                  End Site
                  {
                    OFFSET -2.48547 -0.328903 0.83742
                  }
                }
              }
              JOINT rRing1
              {
                OFFSET -8.82822 0.546677 1.51678
                CHANNELS 3 Zrotation Xrotation Yrotation
                JOINT rRing2
                {
                  OFFSET -2.60934 -0.819778 -0.0198488
                  CHANNELS 3 Zrotation Xrotation Yrotation
                  End Site
                  {
                    OFFSET -2.33842 -0.294052 0.168128
                  }
                }
              }
              JOINT rPinky1
              {
                OFFSET -8.27202 -0.0477905 -0.4584
                CHANNELS 3 Zrotation Xrotation Yrotation
                JOINT rPinky2
                {
                  OFFSET -1.82734 -0.647385 -0.700984
                  CHANNELS 3 Zrotation Xrotation Yrotation
                  End Site
                  {
                    OFFSET -1.69225 -0.51767 -0.607171
                  }
                }
              }
            }
          }
        }
      }
      JOINT lCollar
      {
        OFFSET 2.68224 19.2634 -4.8768
        CHANNELS 3 Zrotation Xrotation Yrotation
        JOINT lShldr
        {
          OFFSET 8.77824 -1.95073 1.46304
          CHANNELS 3 Zrotation Xrotation Yrotation
          JOINT lForeArm
          {
            OFFSET 28.1742 -1.7115 0.48768
            CHANNELS 3 Zrotation Xrotation Yrotation
            JOINT lHand
            {
              OFFSET 22.5879 0.773209 7.07136
              CHANNELS 3 Zrotation Xrotation Yrotation
              JOINT lThumb1
              {
                OFFSET 1.2192 -0.487915 3.41376
                CHANNELS 3 Zrotation Xrotation Yrotation
                JOINT lThumb2
                {
                  OFFSET 3.37035 -0.52449 3.41376
                  CHANNELS 3 Zrotation Xrotation Yrotation
                  End Site
                  {
                    OFFSET 1.78271 -1.18214 1.43049
                  }
                }
              }
              JOINT lIndex1
              {
                OFFSET 7.75947 0.938293 5.60832
                CHANNELS 3 Zrotation Xrotation Yrotation
                JOINT lIndex2
                {
                  OFFSET 2.54057 -0.884171 1.56538
                  CHANNELS 3 Zrotation Xrotation Yrotation
                  End Site
                  {
                    OFFSET 1.62519 -0.234802 1.16502
                  }
                }
              }
              JOINT lMid1
              {
                OFFSET 8.24714 1.18213 3.41376
                CHANNELS 3 Zrotation Xrotation Yrotation
                JOINT lMid2
                {
                  OFFSET 3.10165 -0.590103 1.0647
                  CHANNELS 3 Zrotation Xrotation Yrotation
                  End Site
                  {
                    OFFSET 2.48547 -0.328903 0.83742
                  }
                }
              }
              JOINT lRing1
              {
                OFFSET 8.82822 0.546677 1.51678
                CHANNELS 3 Zrotation Xrotation Yrotation
                JOINT lRing2
                {
                  OFFSET 2.60934 -0.819778 -0.0198488
                  CHANNELS 3 Zrotation Xrotation Yrotation
                  End Site
                  {
                    OFFSET 2.33842 -0.294052 0.168128
                  }
                }
              }
              JOINT lPinky1
              {
                OFFSET 8.27202 -0.0477905 -0.4584
                CHANNELS 3 Zrotation Xrotation Yrotation
                JOINT lPinky2
                {
                  OFFSET 1.82734 -0.647385 -0.700984
                  CHANNELS 3 Zrotation Xrotation Yrotation
                  End Site
                  {
                    OFFSET 1.69225 -0.51767 -0.607171
                  }
                }
              }
            }
          }
        }
      }
    }
  }
  JOINT rButtock
  {
    OFFSET -8.77824 4.35084 1.2192
    CHANNELS 3 Zrotation Xrotation Yrotation
    JOINT rThigh
    {
      OFFSET 0 -1.70687 -2.19456
      CHANNELS 3 Zrotation Xrotation Yrotation
      JOINT rShin
      {
        OFFSET 0 -36.8199 0.73152
        CHANNELS 3 Zrotation Xrotation Yrotation
        JOINT rFoot
        {
          OFFSET 0.73152 -45.1104 -5.12064
          CHANNELS 3 Zrotation Xrotation Yrotation
          End Site
          {
            OFFSET -1.1221 -3.69964 12.103
          }
        }
      }
    }
  }
  JOINT lButtock
  {
    OFFSET 8.77824 4.35084 1.2192
    CHANNELS 3 Zrotation Xrotation Yrotation
    JOINT lThigh
    {
      OFFSET 0 -1.70687 -2.19456
      CHANNELS 3 Zrotation Xrotation Yrotation
      JOINT lShin
      {
        OFFSET 0 -36.8199 0.73152
        CHANNELS 3 Zrotation Xrotation Yrotation
        JOINT lFoot
        {
          OFFSET -0.73152 -45.1104 -5.12064
          CHANNELS 3 Zrotation Xrotation Yrotation
          End Site
          {
            OFFSET 1.1221 -3.69964 12.103
          }
        }
      }
    }
  }
}
MOTION
Frames:	7
Frame Time:	0.00833333
45.1355 79.0748 25.1 -0.0 0.0 -0.0 0.0 -0.0 0.0 0.0 0.0 -0.0 -8.133567 10.422116 -81.502261 11.496437 6.51512 81.58876 -0.0 0.0 -0.0 -0.0 0.0 -0.0 -155.460052 -3.227798 161.777534 10.644538 22.865226 19.247031 1.595106 -51.860094 -35.062328 166.20157 -28.005117 141.776866 -103.199394 36.330979 60.111426 8.746658 -25.603687 24.892991 -2.68634 4.226753 1.583637 78.009979 -60.859423 38.079358 -125.644075 49.839986 115.274123 -168.024998 -27.937449 147.132574 0.004873 1.771387 0.556475 -151.200535 60.648482 154.946959 -12.006991 -23.632071 -11.402645 -130.692555 -30.023969 -127.794186 155.54842 -3.80427 -161.899949 147.211654 20.940447 -159.069852 -175.272496 -24.880797 -141.738759 -176.377879 0.955776 -145.263757 0.491581 0.484673 -0.077556 132.684658 -31.718248 -116.419117 50.386399 40.826202 -40.02487 -83.311418 -71.813313 -39.649797 160.393597 -5.805646 -143.112472 164.893175 -19.56142 -144.015478 0.014868 -1.323148 0.415899 84.094999 78.521328 -87.267037 110.054214 -41.782596 108.1278 155.578696 52.512478 151.364044 0.0 0.0 -0.0 -0.0 -0.0 -0.0 6.649139 3.263768 68.510317 1.387469 -72.224379 -91.796161 0.0 0.0 -0.0 -0.0 -0.0 -0.0 -4.304493 0.86717 -39.030537 76.190918 30.361278 -11.134962
44.6792 79.142 24.3755 -0.0 0.0 -0.0 0.0 -0.0 0.0 0.0 0.0 -0.0 -8.133567 10.422116 -81.502261 11.496437 6.51512 81.58876 -0.0 0.0 -0.0 -0.0 0.0 -0.0 -155.460052 -3.227798 161.777534 10.644538 22.865226 19.247031 14.959967 -6.797206 -29.556 -178.836364 16.065221 145.069315 -0.491581 0.484673 0.077556 -0.472872 0.702078 0.719432 -77.667448 43.02965 64.538509 -170.503855 -25.654905 123.614254 -10.975806 25.789868 7.640203 -163.863472 2.057993 143.921929 0.004875 1.770451 0.556181 -6.813554 44.506865 8.340702 -144.78382 10.845923 -141.476964 -124.391453 -29.394695 -124.477183 155.54842 -3.80427 -161.899949 147.211654 20.940447 -159.069852 -5.353541 8.504065 -0.562403 5.701251 17.923417 -0.280756 5.433768 5.264911 -1.077842 179.650549 -76.0267 -99.267778 117.900883 27.950241 -99.678959 -12.976327 -2.30973 16.126746 -6.533059 -20.414937 2.717988 85.239253 63.201938 -74.16393 0.000142 -0.018512 0.005816 3.391572 29.344359 -4.679812 -12.252484 41.424931 -10.280249 -33.178749 74.92088 1.222237 0.0 0.0 -0.0 -0.0 -0.0 -0.0 4.304493 0.86717 39.030537 51.159233 -50.862044 -36.786167 0.0 0.0 -0.0 -0.0 -0.0 -0.0 -4.304493 0.86717 -39.030537 -3.299917 -5.358631 41.931592
44.267 79.2112 23.6126 -0.0 0.0 -0.0 0.0 -0.0 0.0 0.0 0.0 -0.0 -8.133567 10.422116 -81.502261 11.496437 6.51512 81.58876 -0.0 0.0 -0.0 -0.0 0.0 -0.0 -155.460052 -3.227798 161.777534 10.644538 22.865226 19.247031 1.595106 -51.860094 -35.062328 166.20157 -28.005117 141.776866 -103.199394 36.330979 60.111426 8.746658 -25.603687 24.892991 -166.865551 -44.037448 122.052336 -122.726838 26.807504 106.31748 -125.644075 49.839986 115.274123 -168.024998 -27.937449 147.132574 0.004873 1.771387 0.556475 -151.200535 60.648482 154.946959 -12.006991 -23.632071 -11.402645 -130.692555 -30.023969 -127.794186 155.54842 -3.80427 -161.899949 147.211654 20.940447 -159.069852 -175.272496 -24.880797 -141.738759 -176.377879 0.955776 -145.263757 171.706035 -9.388422 -89.948992 -34.331776 -65.865533 -27.77327 27.099922 30.419668 -19.830659 162.06029 5.445889 -115.366423 -68.983989 -80.15399 -40.578188 112.082093 56.454004 -101.683559 145.121957 1.974539 179.748654 142.899682 -19.667028 175.937964 81.323898 -51.182704 79.740822 18.078205 -38.61451 19.374444 0.0 0.0 -0.0 -0.0 -0.0 -0.0 6.649139 3.263768 68.510317 1.387469 -72.224379 -91.796161 0.0 0.0 -0.0 -0.0 -0.0 -0.0 -4.304493 0.86717 -39.030537 76.190918 30.361278 -11.134962
43.8407 79.2655 22.8202 -0.0 -0.0 -0.0 -0.0 -4.771896 -180.0 0.0 -4.771896 180.0 0.245875 19.608241 -158.802917 7.579128 18.139248 157.548848 -0.0 -0.0 0.0 -0.0 -0.0 0.0 -155.809564 -5.55542 162.26674 17.430074 2.184344 16.717053 12.627304 4.52169 -32.794271 178.725265 8.463671 145.327862 175.880133 -21.257501 88.493291 19.982655 -69.287243 12.950122 60.461659 -70.523647 15.71111 77.310018 -51.342574 25.745609 -167.375306 -28.008469 145.269175 5.889519 0.620519 1.554345 0.004672 0.917785 0.288305 -0.99148 11.178953 1.327828 -146.226238 15.470244 -142.747894 -144.314251 9.387871 -141.04541 -2.185877 -15.733598 3.202037 167.363721 53.659181 -167.780104 5.513297 16.432513 27.790438 -153.163806 -49.616813 -132.647678 9.681738 9.193547 -2.243333 123.958349 -20.711469 -108.209938 117.900883 27.950241 -99.678959 155.534563 -5.399691 -125.168447 -68.983989 -80.15399 -40.578188 9.172134 25.382538 -9.537213 -0.004679 1.85441 -0.582564 163.887385 20.711012 -169.137528 145.720544 13.816963 142.3054 -49.624398 80.157001 10.757902 -0.0 0.0 -0.0 -0.0 -0.0 -0.0 6.882802 3.713377 72.914422 -124.756715 50.85885 54.66363 -0.0 0.0 -0.0 -0.0 -0.0 -0.0 -6.882802 3.713377 -72.914422 124.756715 50.85885 -54.66363
43.3474 79.318 21.9791 -0.0 0.0 -0.0 0.0 -0.0 0.0 0.0 0.0 -0.0 -8.133567 10.422116 -81.502261 11.496437 6.51512 81.58876 -0.0 0.0 -0.0 -0.0 0.0 -0.0 -80.1661 68.371792 83.260848 16.926784 14.142456 -0.162407 116.476664 78.256116 -145.121741 -178.194028 18.000434 144.947467 -5.433768 5.264911 1.077842 -99.274744 10.222434 91.135275 -108.427673 34.160977 91.742903 -15.562307 45.38158 1.551868 -160.673322 -6.667841 143.245105 -4.22021 26.121209 6.365196 -0.014868 -1.323148 -0.415899 -3.420087 29.318574 4.957403 -133.876602 -15.638763 -131.333304 18.132413 43.514833 8.009575 155.54842 -3.80427 -161.899949 147.211654 20.940447 -159.069852 -7.032347 3.346656 -0.566125 7.478207 23.082657 -0.726605 85.829417 38.630721 -47.955432 173.597121 -41.210753 -78.542852 -37.215945 -57.917763 0.643014 -4.30807 9.450289 -7.466282 161.153703 -8.160616 -143.465095 164.951129 -19.579184 -143.873084 -0.000171 0.022623 -0.007107 1.757631 18.360058 -2.612795 125.807905 -27.87746 123.551547 -1.485218 -8.935484 2.857081 0.0 0.0 -0.0 -0.0 -0.0 -0.0 4.304493 0.86717 39.030537 51.159233 -50.862044 -36.786167 0.0 0.0 -0.0 -0.0 -0.0 -0.0 -4.304493 0.86717 -39.030537 -3.299917 -5.358631 41.931592
42.7719 79.3694 20.995 -0.0 -0.0 -0.0 0.0 0.0 0.0 0.0 0.0 0.0 -8.133567 10.422116 -81.502261 11.496437 6.51512 81.58876 0.0 -0.0 -0.0 0.0 -0.0 -0.0 2.185877 -15.733598 -3.202037 -167.363721 53.659181 167.780104 3.80435 49.274246 -34.201972 169.877585 -18.692044 143.563348 1.590029 -1.575931 -0.222909 -131.866176 -29.341208 116.744945 10.211155 -18.05077 -4.56389 85.080079 -57.271232 41.704699 -167.375306 -28.008469 145.269175 -135.863375 42.120014 126.175953 -145.119721 0.310087 -179.225753 22.517979 44.411996 -3.991067 8.368306 26.426704 7.36241 -16.485517 -29.693116 -15.563114 80.1661 68.371792 -83.260848 -16.926784 14.142456 0.162407 -166.563029 -0.475355 -170.011781 55.118217 70.928539 -37.687534 169.572075 -7.253889 -89.92958 136.251932 9.403453 -67.743237 77.667448 43.02965 -64.538509 -178.777673 -46.604393 -119.866487 -68.983989 -80.15399 -40.578188 -2.43134 0.980099 -3.390908 -0.000171 0.022644 -0.007114 2.858294 26.177553 -4.021221 155.615964 50.802694 149.741567 147.473034 14.38633 140.936081 -0.0 0.0 -0.0 -0.0 -2.27635 -180.0 -7.141193 -6.527402 -102.138307 -4.936032 -1.296361 -80.401011 -0.0 0.0 -0.0 -0.0 -2.27635 -180.0 7.141193 -6.527402 102.138307 4.936032 -1.296361 80.401011
42.2259 79.3999 20.0526 -0.0 0.0 -0.0 0.0 -0.0 0.0 0.0 0.0 -0.0 -8.133567 10.422116 -81.502261 11.496437 6.51512 81.58876 -0.0 0.0 -0.0 -0.0 0.0 -0.0 -80.1661 68.371792 83.260848 16.926686 14.149077 -0.16198 -8.750215 7.324614 -25.099426 133.652802 -63.342769 115.647925 -174.088169 -11.753554 89.875806 -38.780252 -23.246961 4.240526 -46.208543 39.652969 36.318179 -53.01435 54.989121 28.932087 23.903801 -61.333833 1.399383 -163.749087 -1.73618 140.073964 -0.000142 -0.018523 -0.005819 -159.061435 43.165342 163.410946 26.973563 80.122588 10.137824 0.833627 -0.323154 -3.495391 155.54842 -3.80427 -161.899949 152.277222 6.492045 -161.213618 4.816265 24.054217 -1.635724 -4.211494 -13.028807 -0.930201 -1.590029 -1.575931 0.222909 15.347045 15.240021 -12.369607 1.564766 2.494907 -0.906783 92.872634 47.895979 -63.279122 36.036059 51.723116 -29.832321 167.446161 -15.392401 -146.812852 -0.000474 0.063839 -0.020056 -1.138711 -23.929149 2.819074 -5.663198 16.872151 -5.087837 -1.128296 3.870524 -0.297029 0.0 0.0 -0.0 -0.0 -0.0 -0.0 6.649139 3.263768 68.510317 3.486063 -61.932348 -86.704478 0.0 0.0 -0.0 -0.0 -0.0 -0.0 -4.304493 0.86717 -39.030537 76.190918 30.361278 -11.134962
